<?xml version="1.0" encoding="UTF-8" standalone="no"?>
<svg
   width="98"
   height="96"
   version="1.1"
   id="svg4"
   sodipodi:docname="gitLogo.svg"
   inkscape:version="1.1.1 (3bf5ae0d25, 2021-09-20)"
   xmlns:inkscape="http://www.inkscape.org/namespaces/inkscape"
   xmlns:sodipodi="http://sodipodi.sourceforge.net/DTD/sodipodi-0.dtd"
   xmlns:xlink="http://www.w3.org/1999/xlink"
   xmlns="http://www.w3.org/2000/svg"
   xmlns:svg="http://www.w3.org/2000/svg">
  <defs
     id="defs8">
    <linearGradient
       inkscape:collect="always"
       id="linearGradient13611">
      <stop
         style="stop-color:#e3acff;stop-opacity:1"
         offset="0"
         id="stop13607" />
      <stop
         style="stop-color:#77c4ff;stop-opacity:1"
         offset="1"
         id="stop13609" />
    </linearGradient>
    <inkscape:path-effect
       effect="spiro"
       id="path-effect13511"
       is_visible="true"
       lpeversion="1" />
    <inkscape:path-effect
       effect="spiro"
       id="path-effect13474"
       is_visible="true"
       lpeversion="1" />
    <inkscape:path-effect
       effect="spiro"
       id="path-effect13470"
       is_visible="true"
       lpeversion="1" />
    <inkscape:path-effect
       effect="spiro"
       id="path-effect13433"
       is_visible="true"
       lpeversion="1" />
    <inkscape:path-effect
       effect="spiro"
       id="path-effect13429"
       is_visible="true"
       lpeversion="1" />
    <inkscape:path-effect
       effect="spiro"
       id="path-effect13240"
       is_visible="true"
       lpeversion="1" />
    <inkscape:path-effect
       effect="spiro"
       id="path-effect13236"
       is_visible="true"
       lpeversion="1" />
    <inkscape:path-effect
       effect="spiro"
       id="path-effect13083"
       is_visible="true"
       lpeversion="1" />
    <inkscape:path-effect
       effect="spiro"
       id="path-effect13079"
       is_visible="true"
       lpeversion="1" />
    <inkscape:path-effect
       effect="spiro"
       id="path-effect13009"
       is_visible="true"
       lpeversion="1" />
    <inkscape:path-effect
       effect="spiro"
       id="path-effect12837"
       is_visible="true"
       lpeversion="1" />
    <inkscape:path-effect
       effect="spiro"
       id="path-effect12833"
       is_visible="true"
       lpeversion="1" />
    <inkscape:path-effect
       effect="spiro"
       id="path-effect12829"
       is_visible="true"
       lpeversion="1" />
    <linearGradient
       inkscape:collect="always"
       xlink:href="#linearGradient13611"
       id="linearGradient14169"
       gradientUnits="userSpaceOnUse"
       x1="41.372181"
       y1="95.772354"
       x2="41.372181"
       y2="-2.5928726" />
    <linearGradient
       inkscape:collect="always"
       xlink:href="#linearGradient13611"
       id="linearGradient14553"
       gradientUnits="userSpaceOnUse"
       x1="41.372181"
       y1="95.772354"
       x2="41.372181"
       y2="-2.5928726" />
    <linearGradient
       inkscape:collect="always"
       xlink:href="#linearGradient13611"
       id="linearGradient14555"
       gradientUnits="userSpaceOnUse"
       x1="41.372181"
       y1="95.772354"
       x2="41.372181"
       y2="-2.5928726" />
    <linearGradient
       inkscape:collect="always"
       xlink:href="#linearGradient13611"
       id="linearGradient14557"
       gradientUnits="userSpaceOnUse"
       x1="41.372181"
       y1="95.772354"
       x2="41.372181"
       y2="-2.5928726" />
    <linearGradient
       inkscape:collect="always"
       xlink:href="#linearGradient13611"
       id="linearGradient14559"
       gradientUnits="userSpaceOnUse"
       x1="41.372181"
       y1="95.772354"
       x2="41.372181"
       y2="-2.5928726" />
    <linearGradient
       inkscape:collect="always"
       xlink:href="#linearGradient13611"
       id="linearGradient14561"
       gradientUnits="userSpaceOnUse"
       x1="41.372181"
       y1="95.772354"
       x2="41.372181"
       y2="-2.5928726" />
    <linearGradient
       inkscape:collect="always"
       xlink:href="#linearGradient13611"
       id="linearGradient14563"
       gradientUnits="userSpaceOnUse"
       x1="41.372181"
       y1="95.772354"
       x2="41.372181"
       y2="-2.5928726" />
    <linearGradient
       inkscape:collect="always"
       xlink:href="#linearGradient13611"
       id="linearGradient14565"
       gradientUnits="userSpaceOnUse"
       x1="41.372181"
       y1="95.772354"
       x2="41.372181"
       y2="-2.5928726" />
    <linearGradient
       inkscape:collect="always"
       xlink:href="#linearGradient13611"
       id="linearGradient14567"
       gradientUnits="userSpaceOnUse"
       x1="41.372181"
       y1="95.772354"
       x2="41.372181"
       y2="-2.5928726" />
    <linearGradient
       inkscape:collect="always"
       xlink:href="#linearGradient13611"
       id="linearGradient14569"
       gradientUnits="userSpaceOnUse"
       x1="41.372181"
       y1="95.772354"
       x2="41.372181"
       y2="-2.5928726" />
    <linearGradient
       inkscape:collect="always"
       xlink:href="#linearGradient13611"
       id="linearGradient14571"
       gradientUnits="userSpaceOnUse"
       x1="41.372181"
       y1="95.772354"
       x2="41.372181"
       y2="-2.5928726" />
    <linearGradient
       inkscape:collect="always"
       xlink:href="#linearGradient13611"
       id="linearGradient14573"
       gradientUnits="userSpaceOnUse"
       x1="41.372181"
       y1="95.772354"
       x2="41.372181"
       y2="-2.5928726" />
    <linearGradient
       inkscape:collect="always"
       xlink:href="#linearGradient13611"
       id="linearGradient14575"
       gradientUnits="userSpaceOnUse"
       x1="41.372181"
       y1="95.772354"
       x2="41.372181"
       y2="-2.5928726" />
  </defs>
  <sodipodi:namedview
     id="namedview6"
     pagecolor="#ffffff"
     bordercolor="#999999"
     borderopacity="1"
     inkscape:pageshadow="0"
     inkscape:pageopacity="0"
     inkscape:pagecheckerboard="0"
     showgrid="false"
     inkscape:zoom="2.7604167"
     inkscape:cx="40.754716"
     inkscape:cy="33.147169"
     inkscape:window-width="1366"
     inkscape:window-height="715"
     inkscape:window-x="-8"
     inkscape:window-y="-8"
     inkscape:window-maximized="1"
     inkscape:current-layer="svg4" />
  <g
     id="g13605"
     style="stroke:url(#linearGradient14169);stroke-width:4.29305;stroke-miterlimit:4;stroke-dasharray:none"
     transform="matrix(0.93173875,0,0,0.93173875,9.9380244,4.9665617)"
     inkscape:export-filename="C:\Users\Nelly\Desktop\GITHUB  USERS\assets\g13605.png"
     inkscape:export-xdpi="96"
     inkscape:export-ydpi="96">
    <path
       style="fill:none;stroke:url(#linearGradient14553);stroke-width:4.29305;stroke-linecap:round;stroke-linejoin:miter;stroke-miterlimit:4;stroke-dasharray:none;stroke-opacity:1"
       d="m 15.864748,30.900456 c -0.845609,-2.205168 -1.213644,-4.592087 -1.07154,-6.949549 0.126808,-2.103711 0.658545,-4.18228 1.55754,-6.088451"
       id="path12827"
       inkscape:path-effect="#path-effect12829"
       inkscape:original-d="m 15.864748,30.900456 c -0.35618,-2.315516 -0.71336,-4.632032 -1.07154,-6.949549 -0.358181,-2.317516 1.03936,-4.057967 1.55754,-6.088451" />
    <path
       style="fill:none;stroke:url(#linearGradient14555);stroke-width:4.29305;stroke-linecap:round;stroke-linejoin:miter;stroke-miterlimit:4;stroke-dasharray:none;stroke-opacity:1"
       d="m 16.350748,17.862456 c 1.697558,0.0059 3.394281,0.223083 5.038565,0.645063 3.086856,0.792194 5.983843,2.314332 8.387435,4.406937"
       id="path12831"
       inkscape:path-effect="#path-effect12833"
       inkscape:original-d="m 16.350748,17.862456 c 1.680522,0.216021 3.360043,0.431042 5.038565,0.645063 1.678522,0.214021 5.592623,2.938958 8.387435,4.406937" />
    <path
       style="fill:none;stroke:url(#linearGradient14557);stroke-width:4.29305;stroke-linecap:butt;stroke-linejoin:miter;stroke-miterlimit:4;stroke-dasharray:none;stroke-opacity:1"
       d="m 54.203748,22.914456 c -4.171289,-1.153363 -8.50659,-1.711819 -12.833999,-1.653223 -3.913768,0.05299 -7.82043,0.610105 -11.593001,1.653223"
       id="path12835"
       inkscape:path-effect="#path-effect12837"
       inkscape:original-d="m 54.203748,22.914456 c -4.277,-0.550074 -8.554999,-1.101148 -12.833999,-1.653223 -4.278999,-0.552074 -7.727667,1.103149 -11.593001,1.653223" />
    <path
       style="fill:none;stroke:url(#linearGradient14559);stroke-width:4.29305;stroke-linecap:round;stroke-linejoin:miter;stroke-miterlimit:4;stroke-dasharray:none;stroke-opacity:1"
       d="m 54.203748,22.914456 c 1.656653,-1.308629 3.489733,-2.393617 5.433988,-3.216343 2.530404,-1.070759 5.248979,-1.695101 7.993012,-1.835657"
       id="path13077"
       inkscape:path-effect="#path-effect13079"
       inkscape:original-d="m 54.203748,22.914456 c 1.812329,-1.071114 3.623659,-2.143229 5.433988,-3.216343 1.810329,-1.073114 5.329675,-1.222771 7.993012,-1.835657" />
    <path
       style="fill:none;stroke:url(#linearGradient14561);stroke-width:4.29305;stroke-linecap:round;stroke-linejoin:miter;stroke-miterlimit:4;stroke-dasharray:none;stroke-opacity:1"
       d="m 68.115748,30.900456 c 0.638249,-1.852429 0.972758,-3.809127 0.986139,-5.768381 0.017,-2.489928 -0.487355,-4.982219 -1.471139,-7.269619"
       id="path13081"
       inkscape:path-effect="#path-effect13083"
       inkscape:original-d="m 68.115748,30.900456 c 0.329713,-1.921794 0.658426,-3.844587 0.986139,-5.768381 0.327713,-1.923793 -0.979759,-4.845413 -1.471139,-7.269619" />
    <path
       style="fill:none;stroke:url(#linearGradient14563);stroke-width:4.29305;stroke-linecap:butt;stroke-linejoin:miter;stroke-miterlimit:4;stroke-dasharray:none;stroke-opacity:1"
       d="m 50.806748,68.383456 c 3.940423,-0.07604 7.858901,-1.112558 11.321554,-2.994777 3.324848,-1.807311 6.252079,-4.424689 8.150943,-7.698113 2.020067,-3.482364 2.810582,-7.567547 2.898114,-11.592453 0.07305,-3.358896 -0.334236,-6.772017 -1.630189,-9.871698 -0.818867,-1.958579 -1.986435,-3.770778 -3.431422,-5.325959"
       id="path13234"
       inkscape:path-effect="#path-effect13236"
       inkscape:original-d="m 50.806748,68.383456 c 3.774851,-0.997259 7.548703,-1.995518 11.321554,-2.994777 3.772851,-0.999259 5.434962,-5.131075 8.150943,-7.698113 2.715981,-2.567038 1.933076,-7.727302 2.898114,-11.592453 0.965037,-3.865151 -1.085793,-6.580132 -1.630189,-9.871698 -0.544396,-3.291566 -2.286615,-3.549639 -3.431422,-5.325959" />
    <path
       style="fill:none;stroke:url(#linearGradient14565);stroke-width:4.29305;stroke-linecap:round;stroke-linejoin:miter;stroke-miterlimit:4;stroke-dasharray:none;stroke-opacity:1"
       d="m 54.158491,93.690566 c 0.335499,-3.747391 0.512892,-7.508934 0.531549,-11.271267 0.0118,-2.37987 -0.04151,-4.775559 -0.512319,-7.108424 -0.324657,-1.608678 -0.850955,-3.185907 -1.665036,-4.61087 -0.476765,-0.834526 -1.05049,-1.613607 -1.705937,-2.316549"
       id="path13238"
       inkscape:path-effect="#path-effect13240"
       inkscape:original-d="m 54.158491,93.690566 c 0.0074,-3.777435 0.526139,-7.491831 0.531549,-11.271267 0.0054,-3.779435 -0.511319,-4.759296 -0.512319,-7.108424 -10e-4,-2.349128 -1.109024,-3.072914 -1.665036,-4.61087 -0.556012,-1.537957 -1.136291,-1.543366 -1.705937,-2.316549"
       sodipodi:nodetypes="csssc" />
    <path
       style="fill:none;stroke:url(#linearGradient14567);stroke-width:4.29305;stroke-linecap:butt;stroke-linejoin:miter;stroke-miterlimit:4;stroke-dasharray:none;stroke-opacity:1"
       d="m 33.093748,68.383456 c -3.78786,-0.157841 -7.540232,-1.120862 -10.935957,-2.80664 -2.773591,-1.376925 -5.341725,-3.266163 -7.172464,-5.763587 -1.893946,-2.583649 -2.923142,-5.703401 -3.586232,-8.837501 -0.658432,-3.112084 -0.983468,-6.33201 -0.512319,-9.477899 0.327405,-2.186106 1.03773,-4.310447 2.049276,-6.275906 0.798227,-1.550974 1.783887,-3.005375 2.928696,-4.321467"
       id="path13427"
       inkscape:path-effect="#path-effect13429"
       inkscape:original-d="m 33.093748,68.383456 c -3.644319,-0.934547 -7.289638,-1.870093 -10.935957,-2.80664 -3.646319,-0.936547 -4.780642,-3.841391 -7.172464,-5.763587 -2.391821,-1.922196 -2.389821,-5.890667 -3.586232,-8.837501 -1.196411,-2.946833 -0.340546,-6.317599 -0.512319,-9.477899 -0.171773,-3.1603 1.367184,-4.182938 2.049276,-6.275906 0.682091,-2.092969 1.953464,-2.879978 2.928696,-4.321467" />
    <path
       style="fill:none;stroke:url(#linearGradient14569);stroke-width:4.29305;stroke-linecap:round;stroke-linejoin:miter;stroke-miterlimit:4;stroke-dasharray:none;stroke-opacity:1"
       d="m 29.70566,94.007547 c -0.0084,-1.781119 -0.0084,-3.562277 0,-5.343396 0.01061,-2.251681 0.03464,-4.503299 0.07209,-6.754693"
       id="path13431"
       inkscape:path-effect="#path-effect13433"
       inkscape:original-d="m 29.70566,94.007547 c 10e-4,-1.780132 10e-4,-3.561264 0,-5.343396 -0.001,-1.782132 0.04906,-4.502129 0.07209,-6.754693" />
    <path
       style="fill:none;stroke:url(#linearGradient14571);stroke-width:4.29305;stroke-linecap:butt;stroke-linejoin:miter;stroke-miterlimit:4;stroke-dasharray:none;stroke-opacity:1"
       d="m 30.019748,74.983458 c -1.246914,0.654556 -2.624448,1.059057 -4.027295,1.18258 -1.578116,0.138956 -3.170854,-0.0753 -4.709434,-0.45283 C 20.076931,75.417261 18.858786,75.000289 17.932075,74.173585 17.334826,73.64079 16.887289,72.962453 16.483019,72.271698 15.894127,71.265487 15.378543,70.210179 14.671698,69.283019 13.84264,68.195553 12.752103,67.301138 11.501887,66.74717 10.475582,66.292416 9.3636804,66.07158 8.2617482,65.857456 7.901077,65.787372 7.5333836,65.717344 7.168475,65.760207 c -0.1824543,0.02143 -0.3627565,0.07166 -0.5238468,0.159969 -0.1610903,0.08831 -0.3024818,0.215787 -0.3955716,0.374164 -0.095441,0.162377 -0.1377401,0.353371 -0.1331994,0.541665 0.00454,0.188295 0.054644,0.373942 0.1331994,0.545127 0.1590658,0.346629 0.4307018,0.631023 0.73188,0.865 0.3011782,0.233978 0.6341683,0.422964 0.9568116,0.626324 1.0526711,0.66349 2.0089726,1.493267 2.7490438,2.493582 1.077811,1.45682 1.65999,3.213535 2.53585,4.8 0.782266,1.416937 1.810804,2.707866 3.079245,3.713207 1.202743,0.95327 2.606562,1.63848 4.075472,2.083019 1.696059,0.513282 3.482449,0.71028 5.25283,0.633962 1.403467,-0.0605 2.799497,-0.291661 4.147559,-0.686768"
       id="path13468"
       inkscape:path-effect="#path-effect13470"
       inkscape:original-d="m 30.019748,74.983458 c -1.341432,0.395193 -2.683863,0.789387 -4.027295,1.18258 -1.343432,0.393193 -3.138623,-0.300887 -4.709434,-0.45283 C 19.712208,75.561264 19.050057,74.687792 17.932075,74.173585 16.814094,73.659377 16.967038,72.90666 16.483019,72.271698 15.999,71.636736 15.276472,70.280245 14.671698,69.283019 14.066925,68.285792 12.559491,67.593453 11.501887,66.74717 10.444283,65.900887 9.3427944,66.155027 8.2617482,65.857456 7.180702,65.559885 6.9209538,66.149712 6.2490566,66.29434 c -0.6718972,0.144628 10e-4,0.725528 0,1.086792 -0.001,0.361264 1.1267944,0.995216 1.6886916,1.491324 0.5618972,0.496108 1.8336962,1.663388 2.7490438,2.493582 0.915349,0.830194 1.691566,3.201 2.53585,4.8 0.844283,1.599 2.05383,2.476471 3.079245,3.713207 1.025415,1.236736 2.717981,1.38968 4.075472,2.083019 1.35749,0.69334 3.502886,0.423642 5.25283,0.633962 1.749943,0.210321 2.766039,-0.456845 4.147559,-0.686768" />
    <path
       style="fill:none;stroke:url(#linearGradient14573);stroke-width:4.29305;stroke-linecap:round;stroke-linejoin:miter;stroke-miterlimit:4;stroke-dasharray:none;stroke-opacity:1"
       d="m 33.093748,68.383456 c -0.876271,0.857818 -1.597963,1.873073 -2.120163,2.982582 -0.533988,1.134556 -0.858978,2.367075 -0.953837,3.61742"
       id="path13472"
       inkscape:path-effect="#path-effect13474"
       inkscape:original-d="m 33.093748,68.383456 c -0.705721,0.995194 -1.412442,1.989388 -2.120163,2.982582 -0.707721,0.993194 -0.634891,2.412613 -0.953837,3.61742" />
    <path
       style="fill:none;stroke:url(#linearGradient14575);stroke-width:4.29305;stroke-linecap:butt;stroke-linejoin:miter;stroke-miterlimit:4;stroke-dasharray:none;stroke-opacity:1"
       d="M 54.158491,93.690566 C 60.01942,92.312913 65.723046,90.05347 70.64151,86.581132 73.931344,84.258575 76.838205,81.416967 79.381132,78.29434 85.174418,71.180382 89.09794,62.517699 90.384906,53.433962 92.254557,40.237487 88.371429,26.359266 80.060377,15.939623 72.936453,7.008294 62.639526,0.63329376 51.441509,-1.6301887 44.337398,-3.0661599 36.910929,-2.8733817 29.886792,-1.0867925 22.164687,0.87732505 14.940735,4.7707183 9.0566038,10.143396 2.4657797,16.16134 -2.4184211,24.028046 -4.890566,32.603774 c -2.1453365,7.442048 -2.481499,15.385286 -1.0867925,23.003773 1.5243963,8.326908 5.12861778,16.284401 10.5056604,22.822642 3.3611955,4.087062 7.4066941,7.619495 11.9547171,10.324528 4.092707,2.434224 8.580266,4.192617 13.222641,5.25283 8.016183,1.830715 16.448415,1.564514 24.452831,-0.316981 z"
       id="path13509"
       inkscape:path-effect="#path-effect13511"
       inkscape:original-d="M 54.158491,93.690566 C 62.308435,93.583906 65.14817,88.951943 70.64151,86.581132 76.134849,84.210321 76.468925,81.057604 79.381132,78.29434 82.29334,75.531076 86.717981,61.721755 90.384906,53.433962 94.05183,45.14617 83.502887,28.438736 80.060377,15.939623 76.617868,3.4405094 60.982132,4.2274151 51.441509,-1.6301887 41.900887,-7.4877925 37.072698,-1.2669245 29.886792,-1.0867925 22.700887,-0.90666038 16.001,6.401 9.0566038,10.143396 2.1122075,13.885792 -0.24050943,25.117981 -4.890566,32.603774 c -4.6500566,7.485792 -0.7235283,15.336849 -1.0867925,23.003773 -0.3632641,7.666925 7.0047736,15.216095 10.5056604,22.822642 3.5008868,7.606547 7.9708111,6.884019 11.9547171,10.324528 3.983906,3.440509 8.816094,3.502887 13.222641,5.25283 4.406547,1.749943 16.302887,-0.210321 24.452831,-0.316981 z" />
  </g>
</svg>
